<svg xmlns="http://www.w3.org/2000/svg" xmlns:xlink="http://www.w3.org/1999/xlink" width="18" height="18" viewBox="0 0 18 18">
    <defs>
        <path id="a" d="M9.625 8.5h-.592l-.21-.203A4.853 4.853 0 0 0 10 5.125 4.875 4.875 0 1 0 5.125 10a4.853 4.853 0 0 0 3.172-1.178l.203.21v.593l3.75 3.742 1.117-1.117L9.625 8.5zm-4.5 0A3.37 3.37 0 0 1 1.75 5.125 3.37 3.37 0 0 1 5.125 1.75 3.37 3.37 0 0 1 8.5 5.125 3.37 3.37 0 0 1 5.125 8.5z"/>
        <path id="c" d="M0 0h37.5v37.5H0z"/>
    </defs>
    <g fill="none" fill-rule="evenodd" opacity=".704" transform="translate(2 2)">
        <mask id="b" fill="#fff">
            <use xlink:href="#a"/>
        </mask>
        <g mask="url(#b)">
            <use fill="#000" transform="translate(-11.75 -11.75)" xlink:href="#c"/>
        </g>
    </g>
</svg>
